# xmcd
#
# Track frame offsets:
#	195
#	12687
#	25435
#	35122
#	49752
#	60920
#	73675
#	83297
#	94707
#	108070
#	121252
#	135447
#	147147
#	159855
#	171167
#	183015
#
# Disc length: 2639 seconds
#
# Revision: 3
# Processed by: cddbd v1.5.2PL0 Copyright (c) Steve Scherf et al.
# Submitted via: audiograbber 1.83.01
#
DISCID=c30a4d10
DTITLE=Various Artist - Country Chartbusters
DYEAR=1900
DGENRE=Country
TTITLE0=Johnny Cash - I Walk The Line
TTITLE1=Willie Nelson - Any Old Arms Won't Do
TTITLE2=Charlie Rich - Lonely Weekends
TTITLE3=Jeannie C. Riley - Harper Valley PTA
TTITLE4=Roy Orbison - Fools Hall Of Fame
TTITLE5=Carl Perkins - Honey Don't
TTITLE6=Jerry Lee Lewis - Singing The Blues
TTITLE7=Hank Locklin - Send Me The Pillow That You Dream On
TTITLE8=Jimmie Davis - Without Love There Is Nothing
TTITLE9=Leroy Van Dyke - Oh Pretty Woman
TTITLE10=David Allan Coe - Ride Me Down Easy
TTITLE11=Dave Dudley - Six Days On The Road
TTITLE12=Charlie Walker - San Antonio Rose
TTITLE13=Patti Page - With My Eyes Wide Open I'm Dreaming
TTITLE14=Tennessee Guitars  - Paper Roses
TTITLE15=Roy Drusky - Say You'll Stay Until Tomorrow
EXTD=
EXTT0=
EXTT1=
EXTT2=
EXTT3=
EXTT4=
EXTT5=
EXTT6=
EXTT7=
EXTT8=
EXTT9=
EXTT10=
EXTT11=
EXTT12=
EXTT13=
EXTT14=
EXTT15=
PLAYORDER=
